<svg id="Layer_1" enable-background="new 0 0 38 38" height="512" viewBox="0 0 38 38" width="512" xmlns="http://www.w3.org/2000/svg" fill="#1f1f1f"><g id="_x31_0"><g><g><path d="m29.1611996 32.6685524-5.4723492-1.6979885-.4774513-22.2549343-14.5748034-3.8866148 6.3325005-1.3986643 14.5077944 3.5094979z" fill="#f3a250"/></g><g><path d="m27.7438183 31.3792534-4.2699261 1.8193474c-.122982-5.1018944.3050232 12.6537132-.5689106-23.6009712l-10.2003507-4.0387455 3.3150129-.5005674 10.3832836 2.7159414c.4000511.1045403.7357826.3417687.9689751.6573777.2171173.2955112.3417549.6573782.3437672 1.0413551z" fill="#e3e7f0"/></g><g><path d="m27.3719025 8.4316359-3.59445 1.5177994-.8704586-.2975225-.0020123-.0542822-10.2003507-4.0387465 3.3150129-.5005674 10.3832836 2.7159414c.4000511.1045404.7357826.3417688.9689751.6573778z" fill="#f1f6fa"/></g><g><path d="m18.2680149 5.2344542.1081886-.4811292-1.088211.1157222.0268039.1576719z" fill="#aa6256"/></g><g><path d="m12.287674 6.1902556 5.9208126-.9006286c.0768394-.0116882.0834503-.1198959.008604-.1408501l-3.7043972-1.0371032c-.0110884-.0031042-.0227585-.0035105-.0340357-.0011845l-5.1883363 1.0700781c-.073679.0151963-.0778637.1188803-.0056477.1399636l2.97192.8676534c.0100861.0029444.0206928.0036516.0310803.0020713z" fill="#aa6256"/></g><g><path d="m12.5483236 5.6398168 6.2681418-.9534612-4.0442276-1.1322434-5.4897471 1.1322434z" fill="#bf7d5a"/></g><g><path d="m23.2408104 34.9508438-14.5264053-4.7273331c-.6726294-.218895-1.1279216-.8458748-1.1279011-1.5532246l.0005646-23.9839305 15.8756199 4.481595z" fill="#ffb961"/></g><g><path d="m21.030159 11.6059351-.1527863 17.7611542-.0060234.7357826-.0040245.4321995c-.0060253.5468254-.538765.9308014-1.0594425.7619171l-9.2514734-3.0114517c-.3338413-.1071854-.5568619-.4228821-.5568619-.767931v-18.5753412c0-.5367393.5126286-.9247417 1.0272694-.7779922l.7458324.2110691 8.6684885 2.4465656c.3497944.0985031.5910339.4201488.5890217.784028z" fill="#dd8536"/></g><g><path d="m20.8773727 29.3670883-.0060234.7357826-.0040245.4321995c-.0060253.5468254-.538765.9308014-1.0594425.7619171l-9.2514734-3.0114517c-.2191305-.0703564-.3920145-.2311668-.4844933-.4342098l2.0223789-1.0996628z" fill="#ffd475"/></g><g><path d="m21.030159 11.6059351-.1588097 18.4969368-8.5398388-2.7782726c-.3337069-.1085396-.5588617-.4181366-.5588617-.767931v-18.1813269l8.6684885 2.4465656c.3497944.0985032.5910339.4201489.5890217.7840281z" fill="#f3a250"/></g><g><g><path d="m30.0456219 7.8084421v24.2067099c0 .1754189-.1009254.335186-.2593384.4105377l-.4934921.2347298c-.1171284.0557098-.2523289-.0296974-.2523289-.1593971v-24.6925803c0-.4335146-.3061371-.8378954-.7558689-.9348025l-12.6107311-2.6978307c-.7739677-.166872-1.5640211-.1829457-2.3440256-.0482454l-3.7351732.639267 12.9967098 3.3109875c.8810749.2229357 1.4996891 1.019639 1.4996891 1.929925v24.288475c0 .2044449-.1176853.3906326-.3023586.4783516l-.3556709.1689453c-.1611767.0765572-.3471527-.0409775-.3471527-.2194138v-24.7163582c0-.452322-.3055382-.844348-.7437859-.956913l-14.1968746-3.61656c-.7620846-.1946545-.75555-1.3072424.0864543-1.4554682l4.9272785-.8423359c.9086676-.1547983 1.8253717-.1367123 2.7259903.0562949 1.081831.2314396-4.1895056-.8962748 12.6107311 2.6978552.9159413.1980358 1.5499478 1.0156188 1.5499478 1.9178262z" fill="#ffd475"/></g></g><g><path d="m29.9330444 7.1611261-.9207172.4241739c-.0844421-.3497934-.3638668-.633255-.7277336-.7116604l-12.6107311-2.6978307c-.7739677-.166872-1.5640211-.1829457-2.3440256-.0482454l-3.7351732.639267 12.9967098 3.3109875c.8342743.2110929 1.431345.934803 1.4936638 1.7831755l-.999157.4603462v-.3135967c0-.452322-.3055382-.844348-.7437859-.956913l-14.1968746-3.61656c-.7620845-.1946546-.7555499-1.3072425.0864544-1.4554683l4.9272785-.8423359c.9086676-.1547983 1.8253717-.1367123 2.7259903.0562949 1.081831.2314396-4.1895056-.8962748 12.6107311 2.6978552.6827145.1476098 1.2181549.6428857 1.4373703 1.2705102z" fill="#ffde9b"/></g><g><g><path d="m29.2096062 19.7108707-.0036297.2582035-.0265884 1.6923141-.2091064.08992-4.6348934 1.8349094-.2284527.0971622v-2.1380289l.2284527-.0772457c.1044291-.0376472 5.1842364-1.8690014 4.8742179-1.7572346z" fill="#6d4eea"/></g><g opacity=".2"><path d="m30.0456219 22.1114311-2.3109265 2.1675797-.0093326-2.0862789 1.4235306-.6627446z" fill="#111d33"/></g><g><path d="m29.2059765 19.9690742-.0265885 1.6923142-5.0724525 2.0219917v-1.8825054z" fill="#7e5af2"/></g><g opacity=".2"><path d="m29.2096062 19.7108707-.0036297.2582035-.0265885 1.6923142-.2091064.08992v-1.9598713z" fill="#111d33"/></g><g opacity=".2"><path d="m24.3353882 21.4681053v2.1181126l-.2284527.0971622v-2.1380291z" fill="#111d33"/></g><g><g><g><path d="m24.2211609 23.0671539v.6459084c0 .2075081-.2932396.3760452-.6546764.3770199h-.0038948c-.3624058 0-.6566219-.1685486-.6566219-.3770199v-.6459084z" fill="#7e5af2"/></g><g><path d="m23.5664845 23.0671539v1.0229282h-.0038948c-.3624058 0-.6566219-.1685486-.6566219-.3770199v-.6459084h.6605167z" fill="#986ff9"/></g><g><path d="m24.2211609 23.0668259c0 .2084846-.2951908.3770218-.6585712.3770218-.3624058 0-.6566219-.1685371-.6566219-.3770218 0-.0146046.0019512-.0302067.0048695-.0448112.0379963-.1880169.3156452-.3331852.6517525-.3331852.3380566 0 .6176567.1461315.6537018.3351364.0038946.0146045.0048693.0282554.0048693.04286z" fill="#b28afd"/></g><g><path d="m24.1141186 23.0670471c0 .1625271-.2459927.2939148-.5488091.2939148-.3020058 0-.5471859-.1313877-.5471859-.2939148 0-.1632881.2451801-.2946758.5471859-.2946758.3028164 0 .5488091.1313877.5488091.2946758z" fill="#6d4eea"/></g><g opacity=".2"><path d="m24.2162914 23.0239658c-.0399456.185091-.3156452.3292732-.649807.3302498h-.0038948c-.3361073 0-.6137562-.1451588-.6517525-.332201.0379963-.1880169.3156452-.3331852.6517525-.3331852.3380566 0 .6176568.1461315.6537018.3351364z" fill="#111d33"/></g></g><g><g><path d="m24.2211609 22.2593651v.6459084c0 .2075081-.2932396.3760452-.6546764.3770218h-.0038948c-.3624058 0-.6566219-.1685505-.6566219-.3770218v-.6459084z" fill="#b0b8cf"/></g><g><path d="m23.5664845 22.2593651v1.0229301h-.0038948c-.3624058 0-.6566219-.1685505-.6566219-.3770218v-.6459084h.6605167z" fill="#c9cee2"/></g><g><path d="m24.2211609 22.2591953c0 .2084961-.2951908.3770332-.6585712.3770332-.3624058 0-.6566219-.1685371-.6566219-.3770332 0-.0204544.0029202-.0409088.0087643-.0603886.0496864-.1802406.3205223-.3175964.6478577-.3175964.3351307 0 .6127815.1432076.6527271.3302498.0038947.0155907.005844.0311813.005844.0477352z" fill="#e3e7f0"/></g><g><path d="m24.1141186 22.2592583c0 .1625271-.2459927.2939148-.5488091.2939148-.3020058 0-.5471859-.1313877-.5471859-.2939148 0-.1632881.2451801-.2946758.5471859-.2946758.3028164-.0000001.5488091.1313877.5488091.2946758z" fill="#9ea9c9"/></g><g opacity=".2"><path d="m24.2153168 22.2114601c-.0496864.1792641-.3195457.3166199-.6459064.3175945h-.0038948c-.3351307 0-.6118126-.1441822-.6507835-.3302479.0496864-.1802406.3205223-.3175964.6478577-.3175964.3351305 0 .6127814.1432076.652727.3302498z" fill="#111d33"/></g></g><g><g><path d="m24.2211609 21.4393997v.6459064c0 .2075081-.2932396.3760471-.6546764.3770218h-.0038948c-.3624058 0-.6566219-.1685505-.6566219-.3770218v-.6459064z" fill="#7e5af2"/></g><g><path d="m23.5664845 21.4393997v1.0229282h-.0038948c-.3624058 0-.6566219-.1685505-.6566219-.3770218v-.6459064z" fill="#986ff9"/></g><g><path d="m24.2211609 21.4393997c0 .2084827-.2951908.3770218-.6585712.3770218-.3624058 0-.6566219-.168539-.6566219-.3770218 0-.2094593.2942162-.3779964.6566219-.3779964.3633804 0 .6585712.1685371.6585712.3779964z" fill="#b28afd"/></g><g><path d="m24.1141186 21.439291c0 .162529-.2459927.2939148-.5488091.2939148-.3020058 0-.5471859-.1313858-.5471859-.2939148 0-.1632881.2451801-.2946739.5471859-.2946739.3028164 0 .5488091.1313858.5488091.2946739z" fill="#6d4eea"/></g></g></g><g><g><g><path d="m30.4135914 21.1271343v.6459064c0 .20751-.2932396.3760471-.6546764.3770218h-.0038948c-.3624058 0-.6566219-.1685486-.6566219-.3770218v-.6459064z" fill="#7e5af2"/></g><g><path d="m29.7589149 21.1271343v1.0229282h-.0038948c-.3624058 0-.6566219-.1685486-.6566219-.3770218v-.6459064z" fill="#986ff9"/></g><g><path d="m30.4135914 21.1268063c0 .2084827-.2951908.3770218-.6585712.3770218-.3624058 0-.6566219-.168539-.6566219-.3770218 0-.0146046.0019512-.0302067.0048695-.0448112.0379963-.1880169.3156452-.3331871.6517525-.3331871.3380566 0 .6176567.1461334.6537018.3351383.0038946.0146026.0048693.0282554.0048693.04286z" fill="#b28afd"/></g><g><path d="m30.3065491 21.1270275c0 .1625271-.2459927.2939148-.5488091.2939148-.3020058 0-.5471859-.1313877-.5471859-.2939148 0-.1632881.2451801-.2946758.5471859-.2946758.3028164 0 .5488091.1313877.5488091.2946758z" fill="#6d4eea"/></g><g opacity=".2"><path d="m30.4087219 21.0839462c-.0399456.185091-.3156452.3292732-.649807.3302479h-.0038948c-.3361073 0-.6137562-.1451569-.6517525-.3321991.0379963-.1880169.3156452-.3331871.6517525-.3331871.3380566 0 .6176567.1461334.6537018.3351383z" fill="#111d33"/></g></g><g><g><path d="m30.4135914 20.3193455v.6459064c0 .20751-.2932396.3760471-.6546764.3770218h-.0038948c-.3624058 0-.6566219-.1685486-.6566219-.3770218v-.6459064z" fill="#b0b8cf"/></g><g><path d="m29.7589149 20.3193455v1.0229282h-.0038948c-.3624058 0-.6566219-.1685486-.6566219-.3770218v-.6459064z" fill="#c9cee2"/></g><g><path d="m30.4135914 20.3191757c0 .2084961-.2951908.3770332-.6585712.3770332-.3624058 0-.6566219-.1685371-.6566219-.3770332 0-.0204544.0029202-.0409107.0087643-.0603905.0496864-.1802387.3205223-.3175945.6478577-.3175945.3351307 0 .6127815.1432076.6527271.3302498.0038947.0155907.005844.0311813.005844.0477352z" fill="#e3e7f0"/></g><g><path d="m30.3065491 20.3192387c0 .1625271-.2459927.2939148-.5488091.2939148-.3020058 0-.5471859-.1313877-.5471859-.2939148 0-.1632881.2451801-.2946758.5471859-.2946758.3028164-.0000001.5488091.1313876.5488091.2946758z" fill="#9ea9c9"/></g><g opacity=".2"><path d="m30.4077473 20.2714405c-.0496864.1792641-.3195457.3166199-.6459064.3175945h-.0038949c-.3351326 0-.6118126-.1441822-.6507835-.3302498.0496864-.1802387.3205223-.3175945.6478577-.3175945.3351306 0 .6127815.1432076.6527271.3302498z" fill="#111d33"/></g></g><g><g><path d="m30.4135914 19.4993801v.6459064c0 .2075081-.2932396.3760452-.6546764.3770218h-.0038948c-.3624058 0-.6566219-.1685505-.6566219-.3770218v-.6459064z" fill="#7e5af2"/></g><g><path d="m29.7589149 19.4993801v1.0229282h-.0038948c-.3624058 0-.6566219-.1685505-.6566219-.3770218v-.6459064z" fill="#986ff9"/></g><g><path d="m30.4135914 19.4993801c0 .2084827-.2951908.3770218-.6585712.3770218-.3624058 0-.6566219-.168539-.6566219-.3770218 0-.2094593.2942162-.3779984.6566219-.3779984.3633804.0000001.6585712.1685391.6585712.3779984z" fill="#b28afd"/></g><g><path d="m30.3065491 19.4992714c0 .162529-.2459927.2939148-.5488091.2939148-.3020058 0-.5471859-.1313858-.5471859-.2939148 0-.1632881.2451801-.2946739.5471859-.2946739.3028164 0 .5488091.1313858.5488091.2946739z" fill="#6d4eea"/></g></g></g></g><g><path d="m18.4580135 20.9488983.3250637 2.2211685c.047884.3271923-.2454643.4412422-.4964104.192997l-1.7031498-1.6848202c-.0996704-.0985966-.2187538-.1474876-.3184299-.1307316l-1.703681.2863903c-.2509785.0421886-.5443163-.312767-.4963627-.6006298l.3255072-1.9539795c.0190449-.1143227-.0177546-.2540607-.098402-.3736591l-1.3781166-2.0437317c-.2030525-.3011246-.0910482-.6346169.1895351-.5643406l1.9045534.4770298c.1113977.0279026.2076969-.0095634.2575254-.1001911l.8518257-1.5492954c.1255093-.2282753.4880829-.0793991.6135368.2519245l.8512955 2.2482624c.0498199.1315746.1461411.2481422.2575703.3117085l1.9051418 1.086832c.280592.1600685.3926048.5855255.1895466.7199516l-1.3781338.9123344c-.0806273.0533753-.1174296.162861-.0984153.29278z" fill="#fff"/></g></g><g><path d="m26.0650711 10.3173923c.1564865 1.6385078.1662083 4.7425346 0 6.4685059-.158268-1.6435432-.164463-4.74646 0-6.4685059z" fill="#9ea9c9"/></g><g><path d="m26.0650711 25.1191502c.1459351 1.8760986.1472778 3.7521973 0 5.6282959-.1472778-1.8760987-.1459351-3.7521973 0-5.6282959z" fill="#9ea9c9"/></g></g></svg>